<svg version="1.1" viewBox="0.0 0.0 960.0 288.0" fill="none" stroke="none" stroke-linecap="square" stroke-miterlimit="10" xmlns:xlink="http://www.w3.org/1999/xlink" xmlns="http://www.w3.org/2000/svg"><clipPath id="p.0"><path d="m0 0l960.0 0l0 288.0l-960.0 0l0 -288.0z" clip-rule="nonzero"/></clipPath><g clip-path="url(#p.0)"><path fill="#ffffff" d="m0 0l960.0 0l0 288.0l-960.0 0z" fill-rule="evenodd"/><path fill="#000000" fill-opacity="0.0" d="m11.527559 29.195164l944.6299 0l0 218.80315l-944.6299 0z" fill-rule="evenodd"/><path fill="#4c78c8" d="m90.342865 169.06734l0 14.15625l-44.359375 0l0 -14.15625l44.359375 0zm-38.484375 -73.96874l0 88.12499l-18.15625 0l0 -88.12499l18.15625 0zm180.36151 42.062492l0 34.921875q-2.0625 2.484375 -6.359375 5.359375q-4.296875 2.875 -11.078125 4.9375q-6.78125 2.046875 -16.40625 2.046875q-8.53125 0 -15.5625 -2.8125q-7.015625 -2.8125 -12.0625 -8.25q-5.046875 -5.453125 -7.78125 -13.34375q-2.71875 -7.90625 -2.71875 -18.078125l0 -5.5q0 -10.171867 2.625 -18.093742q2.640625 -7.9375 7.53125 -13.375q4.90625 -5.453125 11.6875 -8.296875q6.78125 -2.84375 15.078125 -2.84375q11.5 0 18.875 3.71875q7.390625 3.71875 11.296875 10.296875q3.90625 6.5625 4.8125 15.03125l-17.609375 0q-0.671875 -4.484375 -2.546875 -7.8125q-1.875 -3.328125 -5.359375 -5.203125q-3.484375 -1.875 -8.984375 -1.875q-4.546875 0 -8.09375 1.84375q-3.53125 1.84375 -5.953125 5.421875q-2.421875 3.578125 -3.6875 8.84375q-1.265625 5.2656174 -1.265625 12.218742l0 5.625q0 6.90625 1.328125 12.203125q1.328125 5.296875 3.953125 8.90625q2.640625 3.59375 6.515625 5.40625q3.875 1.8125 9.015625 1.8125q4.296875 0 7.171875 -0.71875q2.875 -0.734375 4.65625 -1.78125q1.796875 -1.0625 2.765625 -2.03125l0 -15.625l-16.59375 0l0 -12.953125l34.75 0zm87.022736 -0.0625l0 4.1875q0 10.046875 -2.71875 18.03125q-2.71875 7.984375 -7.6875 13.59375q-4.96875 5.59375 -11.84375 8.5625q-6.859375 2.953125 -15.203125 2.953125q-8.296875 0 -15.171875 -2.953125q-6.859375 -2.96875 -11.890625 -8.5625q-5.015625 -5.609375 -7.78125 -13.59375q-2.75 -7.984375 -2.75 -18.03125l0 -4.1875q0 -10.109367 2.71875 -18.062492q2.734375 -7.953125 7.71875 -13.578125q5.0 -5.640625 11.859375 -8.59375q6.875 -2.96875 15.171875 -2.96875q8.34375 0 15.21875 2.96875q6.875 2.953125 11.859375 8.59375q5.0 5.625 7.75 13.578125q2.75 7.953125 2.75 18.062492zm-18.328125 4.1875l0 -4.296875q0 -7.03125 -1.28125 -12.343742q-1.265625 -5.328125 -3.75 -8.953125q-2.484375 -3.640625 -6.0625 -5.484375q-3.5625 -1.859375 -8.15625 -1.859375q-4.609375 0 -8.15625 1.859375q-3.53125 1.84375 -5.984375 5.484375q-2.453125 3.625 -3.71875 8.953125q-1.265625 5.3124924 -1.265625 12.343742l0 4.296875q0 6.953125 1.265625 12.3125q1.265625 5.359375 3.75 9.015625q2.484375 3.65625 6.046875 5.546875q3.578125 1.875 8.1875 1.875q4.59375 0 8.15625 -1.875q3.578125 -1.890625 6.0 -5.546875q2.421875 -3.65625 3.6875 -9.015625q1.28125 -5.359375 1.28125 -12.3125z" fill-rule="nonzero"/><path fill="#4c78c8" d="m392.17136 156.05171l4.90625 0q-0.90625 9.25 -4.96875 15.578125q-4.046875 6.328125 -10.859375 9.5625q-6.796875 3.234375 -16.0 3.234375q-7.328125 0 -13.296875 -2.8125q-5.953125 -2.8125 -10.21875 -7.984375q-4.265625 -5.171875 -6.578125 -12.375q-2.296875 -7.203125 -2.296875 -15.921875l0 -12.34375q0 -8.781242 2.296875 -15.953117q2.3125 -7.171875 6.578125 -12.34375q4.265625 -5.171875 10.28125 -7.984375q6.03125 -2.8125 13.46875 -2.8125q9.015625 0 15.796875 3.203125q6.78125 3.203125 10.828125 9.53125q4.0625 6.328125 4.96875 15.578125l-4.90625 0q-0.90625 -7.671875 -4.140625 -12.96875q-3.234375 -5.296875 -8.875 -8.078125q-5.625 -2.796875 -13.671875 -2.796875q-6.34375 0 -11.4375 2.453125q-5.078125 2.453125 -8.71875 7.03125q-3.625 4.5625 -5.59375 10.890625q-1.96875 6.328125 -1.96875 14.124992l0 12.46875q0 7.6875 1.9375 14.078125q1.9375 6.375 5.5 10.953125q3.578125 4.5625 8.65625 7.078125q5.09375 2.515625 11.390625 2.515625q8.046875 0 13.734375 -2.5625q5.6875 -2.578125 8.984375 -7.90625q3.296875 -5.328125 4.203125 -13.4375zm18.11023 -4.421875l0 -2.296875q0 -7.203125 2.078125 -13.1875q2.09375 -6.0 5.90625 -10.390617q3.8125 -4.390625 9.109375 -6.8125q5.296875 -2.421875 11.765625 -2.421875q6.484375 0 11.8125 2.421875q5.328125 2.421875 9.15625 6.8125q3.84375 4.3906174 5.90625 10.390617q2.0625 5.984375 2.0625 13.1875l0 2.296875q0 7.203125 -2.0625 13.203125q-2.0625 5.984375 -5.875 10.375q-3.8125 4.390625 -9.109375 6.8125q-5.28125 2.40625 -11.765625 2.40625q-6.53125 0 -11.828125 -2.40625q-5.296875 -2.421875 -9.140625 -6.8125q-3.84375 -4.390625 -5.9375 -10.375q-2.078125 -6.0 -2.078125 -13.203125zm4.84375 -2.296875l0 2.296875q0 5.6875 1.59375 10.8125q1.609375 5.109375 4.6875 9.078125q3.09375 3.953125 7.5625 6.234375q4.484375 2.265625 10.296875 2.265625q5.6875 0 10.15625 -2.265625q4.484375 -2.28125 7.546875 -6.234375q3.0625 -3.96875 4.65625 -9.078125q1.609375 -5.125 1.609375 -10.8125l0 -2.296875q0 -5.578125 -1.609375 -10.65625q-1.59375 -5.078125 -4.6875 -9.078125q-3.078125 -3.9999924 -7.5625 -6.3281174q-4.484375 -2.328125 -10.234375 -2.328125q-5.75 0 -10.203125 2.328125q-4.4375 2.328125 -7.5625 6.3281174q-3.109375 4.0 -4.6875 9.078125q-1.5625 5.078125 -1.5625 10.65625zm72.74161 -17.734375l0 51.625l-4.84375 0l0 -65.48437l4.71875 0l0.125 13.859367zm-0.78125 13.859375l-2.421875 -2.78125q0.484375 -5.203125 2.4375 -9.921875q1.96875 -4.734375 5.265625 -8.359367q3.3125 -3.625 7.8125 -5.75q4.515625 -2.125 10.078125 -2.125q4.90625 0 8.8125 1.3125q3.90625 1.296875 6.625 4.046875q2.71875 2.75 4.171875 7.1718674q1.453125 4.421875 1.453125 10.59375l0 43.578125l-4.84375 0l0 -43.453125q0 -7.390625 -2.1875 -11.4375q-2.171875 -4.0624924 -6.046875 -5.7187424q-3.859375 -1.671875 -8.890625 -1.671875q-5.921875 0 -10.109375 2.578125q-4.171875 2.5625 -6.8125 6.4687424q-2.625 3.90625 -3.90625 8.09375q-1.265625 4.171875 -1.4375 7.375zm44.171875 -5.390625l-3.265625 -1.140625q0.484375 -4.421875 2.515625 -8.4375q2.03125 -4.0312424 5.359375 -7.1406174q3.328125 -3.125 7.828125 -4.96875q4.515625 -1.859375 10.015625 -1.859375q5.03125 0 8.984375 1.375q3.96875 1.359375 6.65625 4.296875q2.703125 2.921875 4.15625 7.4999924q1.453125 4.5625 1.453125 11.046875l0 42.484375l-4.84375 0l0 -42.546875q0 -7.75 -2.1875 -12.046875q-2.171875 -4.2968674 -6.046875 -6.0156174q-3.875 -1.734375 -8.953125 -1.671875q-5.390625 0.0625 -9.390625 2.0q-3.984375 1.9375 -6.65625 4.90625q-2.65625 2.9687424 -4.046875 6.2031174q-1.390625 3.234375 -1.578125 6.015625zm67.66913 -9.734375l0 78.0625l-4.84375 0l0 -90.65624l4.671875 0l0.171875 12.593742zm46.359375 19.484375l0 1.265625q0 7.453125 -1.671875 13.5625q-1.65625 6.109375 -4.828125 10.53125q-3.171875 4.421875 -7.78125 6.84375q-4.59375 2.40625 -10.46875 2.40625q-5.625 0 -10.109375 -1.65625q-4.484375 -1.671875 -7.75 -4.6875q-3.265625 -3.03125 -5.265625 -6.9375q-2.0 -3.90625 -2.78125 -8.375l0 -22.765625q1.03125 -5.140625 3.109375 -9.40625q2.09375 -4.2656174 5.265625 -7.4374924q3.1875 -3.1875 7.546875 -4.90625q4.359375 -1.734375 9.859375 -1.734375q5.875 0 10.5 2.34375q4.640625 2.328125 7.84375 6.65625q3.203125 4.3281174 4.859375 10.468742q1.671875 6.140625 1.671875 13.828125zm-4.890625 1.265625l0 -1.265625q0 -6.171875 -1.25 -11.4375q-1.234375 -5.265625 -3.78125 -9.140625q-2.546875 -3.8749924 -6.421875 -6.0468674q-3.859375 -2.1875 -9.125 -2.1875q-5.75 0 -9.75 1.90625q-4.0 1.90625 -6.578125 4.9375q-2.5625 3.0156174 -3.953125 6.4999924q-1.390625 3.484375 -2.0625 6.5625l0 21.5q1.09375 4.828125 3.875 8.828125q2.78125 4.0 7.40625 6.390625q4.640625 2.390625 11.171875 2.390625q5.265625 0 9.078125 -2.171875q3.8125 -2.1875 6.359375 -6.0625q2.546875 -3.875 3.78125 -9.171875q1.25 -5.296875 1.25 -11.53125zm62.632385 20.09375l0 -33.828125q0 -5.140625 -2.1875 -8.828125q-2.171875 -3.7031174 -6.34375 -5.6718674q-4.171875 -1.96875 -10.234375 -1.96875q-5.625 0 -10.078125 1.96875q-4.4375 1.96875 -6.984375 5.3593674q-2.546875 3.390625 -2.546875 7.5625l-4.84375 -0.0625q0 -3.75 1.78125 -7.1875q1.796875 -3.4531174 5.09375 -6.1406174q3.296875 -2.703125 7.796875 -4.28125q4.515625 -1.578125 9.90625 -1.578125q6.90625 0 12.203125 2.34375q5.296875 2.328125 8.25 6.984375q2.96875 4.6562424 2.96875 11.624992l0 32.3125q0 3.515625 0.484375 7.09375q0.484375 3.5625 1.328125 5.734375l0 0.609375l-5.265625 0q-0.65625 -2.296875 -1.0 -5.625q-0.328125 -3.328125 -0.328125 -6.421875zm1.578125 -25.109375l0.125 4.171875l-15.984375 0q-6.046875 0 -10.828125 1.15625q-4.78125 1.140625 -8.109375 3.265625q-3.328125 2.109375 -5.09375 5.015625q-1.75 2.90625 -1.75 6.546875q0 3.75 2.0 6.90625q2.0 3.140625 5.625 4.984375q3.625 1.84375 8.40625 1.84375q6.546875 0 11.59375 -2.265625q5.0625 -2.28125 8.5 -6.171875q3.453125 -3.90625 5.03125 -9.0625l2.109375 3.515625q-1.015625 3.203125 -3.203125 6.484375q-2.171875 3.265625 -5.625 5.953125q-3.453125 2.6875 -8.109375 4.359375q-4.65625 1.65625 -10.59375 1.65625q-6.234375 0 -10.875 -2.328125q-4.625 -2.328125 -7.171875 -6.40625q-2.53125 -4.09375 -2.53125 -9.359375q0 -4.53125 2.046875 -8.28125q2.0625 -3.765625 5.96875 -6.453125q3.90625 -2.6875 9.5 -4.109375q5.609375 -1.421875 12.625 -1.421875l16.34375 0zm46.836487 -28.328117l0 4.359375l-31.34375 0l0 -4.359375l31.34375 0zm-19.234375 -17.3125l4.84375 0l0 66.99999q0 5.265625 1.296875 7.96875q1.296875 2.6875 3.4375 3.625q2.15625 0.9375 4.640625 0.9375q1.75 0 3.234375 -0.171875q1.484375 -0.1875 3.0 -0.4375l0.421875 4.234375q-1.328125 0.421875 -3.453125 0.625q-2.109375 0.21875 -3.75 0.21875q-4.109375 0 -7.203125 -1.5q-3.078125 -1.515625 -4.78125 -5.234375q-1.6875 -3.734375 -1.6875 -10.265625l0 -66.99999zm41.08661 17.3125l0 65.48437l-4.84375 0l0 -65.48437l4.84375 0zm-6.34375 -19.859375q0 -1.625 1.109375 -2.796875q1.125 -1.1875 2.875 -1.1875q1.703125 0 2.84375 1.1875q1.15625 1.171875 1.15625 2.796875q0 1.640625 -1.15625 2.765625q-1.140625 1.109375 -2.84375 1.109375q-1.75 0 -2.875 -1.109375q-1.109375 -1.125 -1.109375 -2.765625zm27.042786 -7.625l4.84375 0l0 80.26562l-0.171875 12.703125l-4.671875 0l0 -92.96874zm51.203125 59.562492l0 1.265625q0 7.453125 -1.671875 13.5625q-1.65625 6.109375 -4.828125 10.53125q-3.171875 4.421875 -7.78125 6.84375q-4.59375 2.40625 -10.46875 2.40625q-5.625 0 -10.078125 -1.6875q-4.453125 -1.6875 -7.65625 -4.6875q-3.203125 -3.0 -5.171875 -6.953125q-1.96875 -3.96875 -2.75 -8.515625l0 -22.578125q1.015625 -5.140625 3.078125 -9.40625q2.0625 -4.2656174 5.203125 -7.4374924q3.15625 -3.1875 7.484375 -4.90625q4.328125 -1.734375 9.765625 -1.734375q5.9375 0 10.5625 2.34375q4.640625 2.328125 7.8125 6.65625q3.171875 4.3281174 4.828125 10.468742q1.671875 6.140625 1.671875 13.828125zm-4.890625 1.265625l0 -1.265625q0 -6.171875 -1.21875 -11.4375q-1.203125 -5.265625 -3.71875 -9.140625q-2.515625 -3.8749924 -6.390625 -6.0468674q-3.875 -2.1875 -9.140625 -2.1875q-5.8125 0 -9.78125 1.90625q-3.953125 1.90625 -6.46875 4.9375q-2.515625 3.0156174 -3.9375 6.4999924q-1.421875 3.484375 -2.078125 6.5625l0 21.375q1.09375 4.78125 3.84375 8.8125q2.75 4.015625 7.375 6.4375q4.640625 2.421875 11.171875 2.421875q5.203125 0 9.046875 -2.171875q3.84375 -2.1875 6.328125 -6.0625q2.484375 -3.875 3.71875 -9.140625q1.25 -5.265625 1.25 -11.5zm27.64801 -60.828117l0 92.96874l-4.84375 0l0 -92.96874l4.84375 0zm45.0896 94.17187q-6.171875 0 -11.4375 -2.390625q-5.265625 -2.390625 -9.203125 -6.703125q-3.921875 -4.328125 -6.140625 -10.265625q-2.203125 -5.9375 -2.203125 -13.015625l0 -2.65625q0 -7.328125 2.203125 -13.34375q2.21875 -6.03125 6.03125 -10.421867q3.8125 -4.390625 8.796875 -6.75q5.0 -2.359375 10.6875 -2.359375q5.75 0 10.40625 2.125q4.65625 2.125 7.984375 5.9375q3.34375 3.8124924 5.09375 9.078117q1.75 5.265625 1.75 11.609375l0 4.0625l-49.921875 0l0 -4.421875l45.140625 0l0 -0.78125q-0.0625 -6.171875 -2.515625 -11.4375q-2.4375 -5.2656174 -6.984375 -8.499992q-4.53125 -3.25 -10.953125 -3.25q-5.140625 0 -9.359375 2.1875q-4.203125 2.171875 -7.234375 6.0156174q-3.015625 3.84375 -4.65625 9.015625q-1.625 5.171875 -1.625 11.234375l0 2.65625q0 5.8125 1.8125 10.90625q1.8125 5.078125 5.078125 8.921875q3.28125 3.84375 7.6875 6.03125q4.421875 2.171875 9.6875 2.171875q5.6875 0 10.40625 -2.0q4.71875 -2.0 8.59375 -7.03125l3.15625 2.359375q-2.1875 3.15625 -5.28125 5.640625q-3.078125 2.484375 -7.28125 3.9375q-4.203125 1.4375 -9.71875 1.4375z" fill-rule="nonzero"/><path fill="#000000" fill-opacity="0.0" d="m3.8419108 100.88267l96.81889 -81.32283l140.69293 167.55905l-96.81891 81.32283z" fill-rule="evenodd"/><path fill="#4c78c8" d="m166.80063 146.66588l9.103043 10.841324l-35.917267 30.168625l-9.103043 -10.841309l35.917267 -30.16864zm-78.93565 -30.297852l56.667923 67.48898l-13.902695 11.677536l-56.667908 -67.48898l13.902679 -11.677536zm49.77179 5.06575l8.871948 10.566101l-31.239166 26.239273l-8.871941 -10.566101l31.239159 -26.239273zm-18.448868 -31.375366l9.143234 10.889175l-35.869415 30.128433l-9.143227 -10.889175l35.869408 -30.128433z" fill-rule="nonzero"/></g></svg>